<?xml version="1.0" encoding="utf-8"?>
<!-- Generator: Adobe Illustrator 27.7.0, SVG Export Plug-In . SVG Version: 6.00 Build 0)  -->
<svg version="1.1" xmlns="http://www.w3.org/2000/svg" xmlns:xlink="http://www.w3.org/1999/xlink" x="0px" y="0px"
	 viewBox="0 0 478.2 174.4" style="enable-background:new 0 0 478.2 174.4;" xml:space="preserve">
<style type="text/css">
	.st0{display:none;}
	.st1{fill:#EB7C17;}
	.st2{fill:#FFD43D;}
</style>
<g id="Guides" class="st0">
</g>
<g id="All_the_mess">
	<g>
		<path class="st1" d="M23.9,27.7c3.4-1.4,7.2-2.1,11.6-2.1v15.3c-1.8-0.1-3.1-0.2-3.7-0.2c-4.7,0-8.5,1.3-11.2,4
			c-2.7,2.6-4,6.6-4,12v27H0V26.4h15.8V34C17.8,31.2,20.5,29.1,23.9,27.7L23.9,27.7z"/>
		<path class="st1" d="M96.4,59.7H53.1c0.8,3.6,2.6,6.4,5.5,8.4c2.9,2,6.5,3.1,10.8,3.1c3,0,5.6-0.4,7.9-1.3
			c2.3-0.9,4.4-2.3,6.4-4.2l8.8,9.6c-5.4,6.2-13.2,9.3-23.6,9.3c-6.5,0-12.2-1.2-17.1-3.8c-5-2.5-8.8-6-11.5-10.5
			c-2.7-4.5-4-9.5-4-15.2s1.3-10.7,4-15.1c2.6-4.5,6.3-8,10.9-10.5s9.8-3.8,15.6-3.8s10.7,1.2,15.2,3.6c4.5,2.4,8.1,5.9,10.7,10.4
			c2.6,4.5,3.9,9.7,3.9,15.7C96.6,55.5,96.5,57,96.4,59.7L96.4,59.7z M57.6,41.3c-2.5,2.1-4.1,5-4.7,8.7h28.2
			c-0.6-3.6-2.1-6.5-4.7-8.7c-2.5-2.2-5.7-3.2-9.4-3.2S60.1,39.2,57.6,41.3L57.6,41.3z"/>
		<path class="st1" d="M159.2,26.4L135,83.6h-17.1l-24-57.2H111l15.8,38.9l16.4-38.9H159.2L159.2,26.4z"/>
		<path class="st1" d="M167.8,15.8c-1.9-1.8-2.9-4-2.9-6.6s1-4.8,2.9-6.6c1.9-1.8,4.4-2.6,7.4-2.6c3.1,0,5.5,0.9,7.4,2.5
			c1.9,1.7,2.9,3.8,2.9,6.4c0,2.8-1,5.1-2.9,6.8c-1.9,1.8-4.4,2.7-7.4,2.7C172.2,18.5,169.7,17.6,167.8,15.8z M166.9,26.4h16.6v57.2
			h-16.6V26.4z"/>
		<path class="st1" d="M250.3,59.7h-43.3c0.8,3.6,2.6,6.4,5.5,8.4c2.9,2,6.5,3.1,10.8,3.1c3,0,5.6-0.4,7.9-1.3
			c2.3-0.9,4.4-2.3,6.4-4.2l8.8,9.6c-5.4,6.2-13.2,9.3-23.6,9.3c-6.5,0-12.2-1.2-17.1-3.8c-5-2.5-8.8-6-11.5-10.5
			c-2.7-4.5-4-9.5-4-15.2s1.3-10.7,4-15.1c2.6-4.5,6.3-8,10.9-10.5s9.8-3.8,15.6-3.8c5.8,0,10.7,1.2,15.2,3.6
			c4.5,2.4,8.1,5.9,10.7,10.4s3.9,9.7,3.9,15.7C250.6,55.5,250.5,57,250.3,59.7L250.3,59.7z M211.5,41.3c-2.5,2.1-4.1,5-4.7,8.7H235
			c-0.6-3.6-2.1-6.5-4.7-8.7c-2.5-2.2-5.7-3.2-9.4-3.2C217.3,38.1,214.1,39.2,211.5,41.3L211.5,41.3z"/>
		<path class="st1" d="M348.3,26.4l-20.7,57.2h-15.9l-12.9-35.5l-13.3,35.5h-15.9l-20.6-57.2h15.6L278,65.1l14-38.7h14l13.6,38.7
			l13.9-38.7H348.3L348.3,26.4z"/>
		<path class="st1" d="M251.3,95.7v47.6c0,10.5-2.7,18.3-8.2,23.4c-5.4,5.1-13.4,7.6-23.9,7.6c-5.5,0-10.8-0.7-15.7-2
			c-5-1.3-9.1-3.3-12.3-5.8l6.6-11.9c2.4,2,5.4,3.6,9.2,4.7c3.7,1.2,7.4,1.8,11,1.8c5.7,0,10-1.3,12.7-3.9c2.7-2.6,4.1-6.5,4.1-11.7
			v-2.4c-4.3,4.7-10.3,7.1-18.1,7.1c-5.2,0-10-1.1-14.4-3.4c-4.4-2.3-7.8-5.5-10.4-9.7c-2.5-4.2-3.8-9-3.8-14.5s1.3-10.3,3.8-14.5
			c2.5-4.2,6-7.4,10.4-9.7c4.4-2.3,9.2-3.4,14.4-3.4c8.3,0,14.6,2.7,18.9,8.2v-7.3L251.3,95.7L251.3,95.7z M230.8,132.7
			c2.8-2.6,4.2-6,4.2-10.2c0-4.2-1.4-7.6-4.2-10.2c-2.8-2.6-6.4-3.9-10.8-3.9s-8,1.3-10.8,3.9c-2.8,2.6-4.3,6-4.3,10.2
			c0,4.2,1.4,7.6,4.3,10.2c2.8,2.6,6.5,3.9,10.8,3.9S228,135.3,230.8,132.7z"/>
		<path class="st1" d="M318.2,129h-43.3c0.8,3.6,2.6,6.4,5.5,8.4c2.9,2,6.5,3.1,10.8,3.1c3,0,5.6-0.4,7.9-1.3
			c2.3-0.9,4.4-2.3,6.4-4.2l8.8,9.6c-5.4,6.2-13.2,9.3-23.6,9.3c-6.5,0-12.2-1.3-17.1-3.8s-8.8-6-11.5-10.5c-2.7-4.5-4-9.5-4-15.2
			s1.3-10.7,4-15.1c2.6-4.5,6.3-8,10.9-10.5c4.6-2.5,9.8-3.8,15.6-3.8c5.8,0,10.7,1.2,15.2,3.6c4.5,2.4,8.1,5.9,10.7,10.4
			c2.6,4.5,3.9,9.7,3.9,15.7C318.5,124.7,318.4,126.2,318.2,129L318.2,129z M279.4,110.6c-2.5,2.1-4.1,5-4.7,8.7h28.2
			c-0.6-3.6-2.1-6.5-4.7-8.7c-2.5-2.2-5.7-3.2-9.4-3.2S282,108.5,279.4,110.6L279.4,110.6z"/>
		<path class="st1" d="M377.2,101.2c4.4,4.3,6.5,10.6,6.5,18.9v32.7h-16.6v-30.2c0-4.5-1-7.9-3-10.2c-2-2.2-4.8-3.3-8.6-3.3
			c-4.2,0-7.5,1.3-10,3.9c-2.5,2.6-3.7,6.4-3.7,11.5v28.3h-16.6V95.7h15.8v6.7c2.2-2.4,4.9-4.3,8.2-5.6c3.3-1.3,6.8-2,10.7-2
			C367.1,94.9,372.9,97,377.2,101.2L377.2,101.2z"/>
		<path class="st1" d="M394.5,95.7h16.6v57.2h-16.6V95.7z"/>
		<path class="st1" d="M478,129h-43.3c0.8,3.6,2.6,6.4,5.5,8.4c2.9,2,6.5,3.1,10.8,3.1c3,0,5.6-0.4,7.9-1.3c2.3-0.9,4.4-2.3,6.4-4.2
			l8.8,9.6c-5.4,6.2-13.2,9.3-23.6,9.3c-6.5,0-12.2-1.3-17.1-3.8c-5-2.5-8.8-6-11.5-10.5c-2.7-4.5-4-9.5-4-15.2s1.3-10.7,4-15.1
			c2.6-4.5,6.3-8,10.9-10.5c4.6-2.5,9.8-3.8,15.6-3.8c5.8,0,10.7,1.2,15.2,3.6c4.5,2.4,8.1,5.9,10.7,10.4c2.6,4.5,3.9,9.7,3.9,15.7
			C478.2,124.7,478.1,126.2,478,129L478,129z M439.2,110.6c-2.5,2.1-4.1,5-4.7,8.7h28.2c-0.6-3.6-2.1-6.5-4.7-8.7
			c-2.5-2.2-5.7-3.2-9.4-3.2C445,107.4,441.7,108.5,439.2,110.6L439.2,110.6z"/>
	</g>
	<path class="st2" d="M403.5,56.7l3.3,10.2h10.7c0.8,0,1.1,1,0.5,1.4l-8.6,6.3l3.3,10.2c0.2,0.7-0.6,1.3-1.2,0.9l-8.6-6.3l-8.6,6.3
		c-0.6,0.4-1.4-0.2-1.2-0.9l3.3-10.2l-8.6-6.3c-0.6-0.4-0.3-1.4,0.5-1.4h10.7l3.3-10.2C402.3,56,403.3,56,403.5,56.7z"/>
</g>
<g id="Page_Model">
</g>
<g id="Background">
</g>
<g id="Card_1">
</g>
<g id="Card_2">
</g>
<g id="Card_3">
</g>
<g id="Card_Stripes">
</g>
<g id="Card_Arrows">
</g>
<g id="Brand_Glows">
</g>
<g id="Brands">
</g>
<g id="Center_Circles_and_Stars">
</g>
<g id="AI_background_circle">
</g>
<g id="Our_magic">
</g>
<g id="AI">
</g>
</svg>
