<?xml version="1.0" encoding="UTF-8"?>
<!DOCTYPE svg PUBLIC "-//W3C//DTD SVG 1.1//EN" "http://www.w3.org/Graphics/SVG/1.1/DTD/svg11.dtd">
<svg xmlns="http://www.w3.org/2000/svg" version="1.1" width="135px" height="72px" style="shape-rendering:geometricPrecision; text-rendering:geometricPrecision; image-rendering:optimizeQuality; fill-rule:evenodd; clip-rule:evenodd" xmlns:xlink="http://www.w3.org/1999/xlink">
<g><path style="opacity:0.674" fill="#c36d35" d="M 42.5,12.5 C 46.0131,13.0282 47.0131,14.8615 45.5,18C 42.7629,19.0798 41.0963,18.2464 40.5,15.5C 40.9424,14.2613 41.6091,13.2613 42.5,12.5 Z"/></g>
<g><path style="opacity:0.777" fill="#c36d35" d="M 0.5,19.5 C 3.5,19.5 6.5,19.5 9.5,19.5C 9.34332,20.8734 9.50999,22.2068 10,23.5C 12.9109,19.7229 16.7442,18.5563 21.5,20C 22,20.5 22.5,21 23,21.5C 24.8356,19.3956 27.0023,19.0623 29.5,20.5C 30.1936,23.0876 31.3602,25.421 33,27.5C 34.3923,19.9894 38.8923,17.3228 46.5,19.5C 46.3379,21.5273 46.5045,23.5273 47,25.5C 48.9803,20.0945 52.8136,18.2611 58.5,20C 59.4162,20.3742 60.2496,20.8742 61,21.5C 62.67,19.3017 64.67,18.9683 67,20.5C 68.5942,28.3939 70.4275,28.3939 72.5,20.5C 74.0453,19.5481 75.712,19.2148 77.5,19.5C 79.1667,31.5 80.8333,31.5 82.5,19.5C 84.1667,19.5 85.8333,19.5 87.5,19.5C 86.4379,24.6863 84.7712,29.6863 82.5,34.5C 80.8333,35.8333 79.1667,35.8333 77.5,34.5C 76.3906,32.6147 75.5573,30.6147 75,28.5C 73.4558,30.4682 72.2891,32.6349 71.5,35C 69.8659,35.4935 68.1992,35.6602 66.5,35.5C 65.969,32.763 65.1356,30.0964 64,27.5C 63.0975,28.7014 61.9308,29.5348 60.5,30C 62.2603,30.9653 62.5937,32.132 61.5,33.5C 55.2503,36.9921 50.417,35.6587 47,29.5C 46.5045,31.4727 46.3379,33.4727 46.5,35.5C 44.5,35.5 42.5,35.5 40.5,35.5C 40.6655,31.4862 40.4988,27.4862 40,23.5C 38.5,27.1667 37,30.8333 35.5,34.5C 33.5,35.8333 31.5,35.8333 29.5,34.5C 28.6083,31.7163 27.4416,29.0496 26,26.5C 25.5172,27.448 25.3505,28.448 25.5,29.5C 21.9007,29.2619 21.5673,30.2619 24.5,32.5C 19.4634,36.6672 14.6301,36.3339 10,31.5C 9.50335,29.1902 9.33669,26.8568 9.5,24.5C 8.17793,24.33 7.01127,24.6634 6,25.5C 5.50166,28.8168 5.33499,32.1501 5.5,35.5C 3.83333,35.5 2.16667,35.5 0.5,35.5C 0.5,30.1667 0.5,24.8333 0.5,19.5 Z M 16.5,23.5 C 17.7562,23.4614 18.7562,23.9614 19.5,25C 18.1667,25.6667 16.8333,25.6667 15.5,25C 16.056,24.6174 16.3893,24.1174 16.5,23.5 Z M 54.5,23.5 C 57.99,25.3364 57.3233,25.8364 52.5,25C 53.4158,24.7216 54.0825,24.2216 54.5,23.5 Z"/></g>
<g><path style="opacity:0.621" fill="#fed43c" d="M 100.5,28.5 C 101.882,29.8005 103.548,30.6339 105.5,31C 104.228,32.3068 103.228,33.8068 102.5,35.5C 101.5,34.1667 100.5,34.1667 99.5,35.5C 98.7717,33.8068 97.7717,32.3068 96.5,31C 98.3197,30.7996 99.653,29.9663 100.5,28.5 Z"/></g>
<g><path style="opacity:0.815" fill="#c36d35" d="M 52.5,36.5 C 56.1185,37.2436 59.7852,37.577 63.5,37.5C 63.3379,39.5273 63.5045,41.5273 64,43.5C 66.6635,37.0001 71.1635,35.3334 77.5,38.5C 78.5836,39.6651 79.4169,40.9984 80,42.5C 80.4935,40.8659 80.6602,39.1992 80.5,37.5C 84.072,38.8108 87.4053,38.4774 90.5,36.5C 92.6145,37.0339 94.4478,38.0339 96,39.5C 96.499,43.8206 96.6657,48.1539 96.5,52.5C 94.8333,52.5 93.1667,52.5 91.5,52.5C 91.8204,49.1016 91.487,45.7683 90.5,42.5C 89.2798,41.2889 88.1131,41.2889 87,42.5C 86.5017,45.8168 86.335,49.1501 86.5,52.5C 84.5,52.5 82.5,52.5 80.5,52.5C 80.5,50.5 80.5,48.5 80.5,46.5C 77.1501,46.335 73.8168,46.5017 70.5,47C 72.1384,48.8013 73.9717,48.9679 76,47.5C 79.3818,48.4503 79.8818,49.9503 77.5,52C 73.7054,52.8372 70.0387,52.5039 66.5,51C 65.1068,49.8289 64.2735,48.3289 64,46.5C 63.5809,56.8021 58.4142,60.3021 48.5,57C 47.1667,55.6667 47.1667,54.3333 48.5,53C 50.3261,52.7083 52.1595,52.875 54,53.5C 55.4038,53.4907 56.5704,52.9907 57.5,52C 48.701,52.8712 45.201,49.0379 47,40.5C 48.4998,38.5313 50.3331,37.198 52.5,36.5 Z M 53.5,41.5 C 57.35,41.7007 58.35,43.5341 56.5,47C 51.7217,47.0734 50.7217,45.2401 53.5,41.5 Z M 70.5,41.5 C 71.9778,41.238 73.3112,41.5713 74.5,42.5C 72.9255,43.6309 71.2588,43.7975 69.5,43C 70.056,42.6174 70.3893,42.1174 70.5,41.5 Z"/></g>
<g><path style="opacity:0.808" fill="#c36d35" d="M 111.5,36.5 C 115.433,36.4113 118.266,38.078 120,41.5C 120.935,38.8981 122.768,37.3981 125.5,37C 128.157,36.8253 130.824,36.9919 133.5,37.5C 133.617,39.4835 132.95,41.1502 131.5,42.5C 129.568,41.4798 127.568,41.3131 125.5,42C 127.871,42.7348 130.205,43.5682 132.5,44.5C 133.952,47.2815 133.619,49.7815 131.5,52C 125.294,51.9253 119.127,52.0919 113,52.5C 104.728,51.6333 102.395,47.3 106,39.5C 107.719,38.1312 109.552,37.1312 111.5,36.5 Z M 110.5,41.5 C 112.429,41.2308 114.095,41.7308 115.5,43C 114.667,43.1667 113.833,43.3333 113,43.5C 111.624,43.3158 110.791,42.6491 110.5,41.5 Z M 120.5,45.5 C 130.994,48.065 130.994,48.7316 120.5,47.5C 120.541,51.2434 119.874,51.4101 118.5,48C 116.623,47.4242 114.789,47.5909 113,48.5C 111.941,48.3699 111.108,47.8699 110.5,47C 114.025,46.8213 117.359,46.3213 120.5,45.5 Z"/></g>
<g><path style="opacity:0.886" fill="#c36d35" d="M 98.5,37.5 C 100.167,37.5 101.833,37.5 103.5,37.5C 103.5,42.5 103.5,47.5 103.5,52.5C 101.833,52.5 100.167,52.5 98.5,52.5C 98.5,47.5 98.5,42.5 98.5,37.5 Z"/></g>
</svg>
