<?xml version="1.0" encoding="utf-8"?>
<!-- Generator: Adobe Illustrator 27.7.0, SVG Export Plug-In . SVG Version: 6.00 Build 0)  -->
<svg version="1.1" id="Layer_1" xmlns="http://www.w3.org/2000/svg" xmlns:xlink="http://www.w3.org/1999/xlink" x="0px" y="0px"
	 viewBox="0 0 479 158.8" style="enable-background:new 0 0 479 158.8;" xml:space="preserve">
<style type="text/css">
	.st0{display:none;}
	.st1{fill:#D87239;}
	.st2{fill:#FFD43D;}
</style>
<g id="Guides" class="st0">
</g>
<g id="Page_Model">
</g>
<g id="Background">
</g>
<g id="Card_1">
</g>
<g id="Card_2">
</g>
<g id="Card_3">
</g>
<g id="Card_Stripes">
</g>
<g id="Card_Arrows">
</g>
<g id="Brand_Glows">
</g>
<g id="Brands">
</g>
<g id="Center_Circles_and_Stars">
</g>
<g id="AI_background_circle">
</g>
<g id="Our_magic">
</g>
<g id="AI">
</g>
<g>
	<g>
		<g>
			<path class="st1" d="M21.7,25.3c3.1-1.3,6.6-1.9,10.6-1.9v13.9c-1.7-0.1-2.8-0.2-3.4-0.2c-4.3,0-7.7,1.2-10.2,3.6
				c-2.5,2.4-3.7,6-3.7,10.9v24.6H0V24.1h14.4V31C16.2,28.5,18.7,26.6,21.7,25.3z"/>
			<path class="st1" d="M87.7,54.4H48.3c0.7,3.2,2.4,5.8,5,7.6c2.6,1.9,5.9,2.8,9.9,2.8c2.7,0,5.1-0.4,7.2-1.2
				c2.1-0.8,4-2.1,5.9-3.8l8,8.7c-4.9,5.6-12.1,8.4-21.5,8.4c-5.9,0-11.1-1.1-15.6-3.4c-4.5-2.3-8-5.5-10.5-9.5
				c-2.5-4.1-3.7-8.7-3.7-13.8c0-5.1,1.2-9.7,3.6-13.8c2.4-4.1,5.7-7.3,10-9.6c4.2-2.3,9-3.4,14.2-3.4c5.1,0,9.7,1.1,13.8,3.3
				c4.1,2.2,7.4,5.3,9.7,9.4c2.4,4.1,3.5,8.9,3.5,14.3C88,50.5,87.9,51.9,87.7,54.4z M52.4,37.6c-2.3,1.9-3.7,4.6-4.3,7.9h25.6
				c-0.5-3.3-1.9-5.9-4.3-7.9c-2.3-2-5.2-3-8.5-3C57.6,34.7,54.7,35.7,52.4,37.6z"/>
			<path class="st1" d="M144.9,24.1l-22,52.1h-15.6L85.5,24.1H101l14.4,35.4l14.9-35.4H144.9z"/>
			<path class="st1" d="M148,14.4c-1.7-1.6-2.6-3.6-2.6-6c0-2.4,0.9-4.4,2.6-6c1.7-1.6,4-2.4,6.8-2.4c2.8,0,5,0.8,6.8,2.3
				c1.7,1.5,2.6,3.5,2.6,5.8c0,2.5-0.9,4.6-2.6,6.2c-1.7,1.6-4,2.5-6.8,2.5C152,16.8,149.7,16,148,14.4z M147.2,24.1h15.1v52.1
				h-15.1V24.1z"/>
			<path class="st1" d="M223.2,54.4h-39.4c0.7,3.2,2.4,5.8,5,7.6c2.6,1.9,5.9,2.8,9.9,2.8c2.7,0,5.1-0.4,7.2-1.2
				c2.1-0.8,4-2.1,5.9-3.8l8,8.7c-4.9,5.6-12.1,8.4-21.5,8.4c-5.9,0-11.1-1.1-15.6-3.4c-4.5-2.3-8-5.5-10.5-9.5
				c-2.5-4.1-3.7-8.7-3.7-13.8c0-5.1,1.2-9.7,3.6-13.8c2.4-4.1,5.7-7.3,10-9.6c4.2-2.3,9-3.4,14.2-3.4c5.1,0,9.7,1.1,13.8,3.3
				c4.1,2.2,7.4,5.3,9.7,9.4c2.4,4.1,3.5,8.9,3.5,14.3C223.5,50.5,223.4,51.9,223.2,54.4z M187.8,37.6c-2.3,1.9-3.7,4.6-4.3,7.9
				h25.6c-0.5-3.3-1.9-5.9-4.3-7.9c-2.3-2-5.2-3-8.5-3C193,34.7,190.2,35.7,187.8,37.6z"/>
			<path class="st1" d="M312.3,24.1l-18.9,52.1h-14.5l-11.7-32.3l-12.1,32.3h-14.5l-18.8-52.1H236l12.3,35.2l12.8-35.2h12.8
				l12.4,35.2L299,24.1H312.3z"/>
		</g>
	</g>
	<polygon class="st2" points="362,54.3 365.1,63.8 375.1,63.8 367,69.7 370.1,79.2 362,73.3 353.9,79.2 357,69.7 348.9,63.8 
		358.9,63.8 	"/>
	<g>
		<g>
			<path class="st1" d="M224.1,87.2v43.4c0,9.5-2.5,16.6-7.5,21.3c-5,4.6-12.2,7-21.8,7c-5,0-9.8-0.6-14.3-1.8
				c-4.5-1.2-8.3-3-11.2-5.3l6-10.8c2.2,1.8,5,3.2,8.3,4.3c3.4,1.1,6.7,1.6,10.1,1.6c5.2,0,9.1-1.2,11.6-3.5
				c2.5-2.4,3.7-5.9,3.7-10.7v-2.2c-3.9,4.3-9.4,6.5-16.5,6.5c-4.8,0-9.1-1-13.1-3.1c-4-2.1-7.1-5-9.4-8.9
				c-2.3-3.8-3.5-8.2-3.5-13.2c0-5,1.2-9.4,3.5-13.2c2.3-3.8,5.5-6.8,9.4-8.9c4-2.1,8.3-3.1,13.1-3.1c7.5,0,13.3,2.5,17.2,7.5v-6.7
				H224.1z M205.4,120.8c2.5-2.4,3.8-5.4,3.8-9.2c0-3.8-1.3-6.9-3.8-9.2c-2.5-2.4-5.8-3.5-9.8-3.5c-4,0-7.3,1.2-9.9,3.5
				c-2.6,2.4-3.9,5.4-3.9,9.2c0,3.8,1.3,6.9,3.9,9.2c2.6,2.4,5.9,3.5,9.9,3.5C199.5,124.3,202.8,123.1,205.4,120.8z"/>
			<path class="st1" d="M285,117.5h-39.4c0.7,3.2,2.4,5.8,5,7.6c2.6,1.9,5.9,2.8,9.9,2.8c2.7,0,5.1-0.4,7.2-1.2
				c2.1-0.8,4-2.1,5.9-3.8l8,8.7c-4.9,5.6-12.1,8.4-21.5,8.4c-5.9,0-11.1-1.1-15.6-3.4c-4.5-2.3-8-5.5-10.5-9.5
				c-2.5-4.1-3.7-8.7-3.7-13.8c0-5.1,1.2-9.7,3.6-13.8c2.4-4.1,5.7-7.3,10-9.6c4.2-2.3,9-3.4,14.2-3.4c5.1,0,9.7,1.1,13.8,3.3
				c4.1,2.2,7.4,5.3,9.7,9.4c2.4,4.1,3.5,8.9,3.5,14.3C285.2,113.6,285.2,114.9,285,117.5z M249.6,100.7c-2.3,1.9-3.7,4.6-4.3,7.9
				H271c-0.5-3.3-1.9-5.9-4.3-7.9c-2.3-2-5.2-3-8.5-3C254.8,97.8,252,98.8,249.6,100.7z"/>
			<path class="st1" d="M338.7,92.2c4,3.9,6,9.6,6,17.2v29.8h-15.1v-27.5c0-4.1-0.9-7.2-2.7-9.2c-1.8-2-4.4-3-7.8-3
				c-3.8,0-6.8,1.2-9.1,3.5c-2.3,2.4-3.4,5.9-3.4,10.5v25.7h-15.1V87.2h14.4v6.1c2-2.2,4.5-3.9,7.5-5.1c3-1.2,6.2-1.8,9.8-1.8
				C329.5,86.4,334.7,88.3,338.7,92.2z"/>
			<path class="st1" d="M354.4,87.2h15.1v52.1h-15.1V87.2z"/>
			<path class="st1" d="M430.4,117.5H391c0.7,3.2,2.4,5.8,5,7.6c2.6,1.9,5.9,2.8,9.9,2.8c2.7,0,5.1-0.4,7.2-1.2
				c2.1-0.8,4-2.1,5.9-3.8l8,8.7c-4.9,5.6-12.1,8.4-21.5,8.4c-5.9,0-11.1-1.1-15.6-3.4c-4.5-2.3-8-5.5-10.5-9.5
				c-2.5-4.1-3.7-8.7-3.7-13.8c0-5.1,1.2-9.7,3.6-13.8c2.4-4.1,5.7-7.3,10-9.6c4.2-2.3,9-3.4,14.2-3.4c5.1,0,9.7,1.1,13.8,3.3
				c4.1,2.2,7.4,5.3,9.7,9.4c2.4,4.1,3.5,8.9,3.5,14.3C430.7,113.6,430.6,114.9,430.4,117.5z M395.1,100.7c-2.3,1.9-3.7,4.6-4.3,7.9
				h25.6c-0.5-3.3-1.9-5.9-4.3-7.9c-2.3-2-5.2-3-8.5-3C400.3,97.8,397.4,98.8,395.1,100.7z"/>
			<path class="st1" d="M441.7,138.4c-4.1-1.1-7.4-2.4-9.9-4l5-10.8c2.3,1.5,5.1,2.7,8.4,3.6c3.3,0.9,6.5,1.4,9.7,1.4
				c6.4,0,9.6-1.6,9.6-4.7c0-1.5-0.9-2.5-2.6-3.2c-1.7-0.6-4.4-1.2-8-1.6c-4.3-0.6-7.8-1.4-10.5-2.2c-2.8-0.8-5.2-2.3-7.2-4.5
				c-2-2.1-3-5.2-3-9.1c0-3.3,1-6.2,2.9-8.8c1.9-2.5,4.7-4.5,8.3-6c3.6-1.4,8-2.1,12.9-2.1c3.7,0,7.3,0.4,11,1.2
				c3.6,0.8,6.7,1.9,9,3.3l-5,10.7c-4.6-2.6-9.6-3.9-15-3.9c-3.2,0-5.6,0.5-7.3,1.4c-1.6,0.9-2.4,2.1-2.4,3.5c0,1.6,0.9,2.7,2.6,3.4
				c1.7,0.6,4.5,1.3,8.3,1.8c4.3,0.7,7.7,1.5,10.5,2.3c2.7,0.8,5.1,2.3,7.1,4.4c2,2.1,3,5.1,3,8.9c0,3.2-1,6.1-2.9,8.6
				c-1.9,2.5-4.8,4.5-8.5,5.9c-3.7,1.4-8.1,2.1-13.2,2.1C450.1,140,445.9,139.5,441.7,138.4z"/>
		</g>
	</g>
</g>
</svg>
