<?xml version="1.0" encoding="UTF-8"?><svg id="Layer_1" xmlns="http://www.w3.org/2000/svg" viewBox="0 0 211.85 59.24"><defs><style>.cls-1{fill:#ffd43d;}.cls-2{fill:#c46d36;}</style></defs><polygon class="cls-1" points="144.59 7.49 145.9 11.53 150.14 11.53 146.71 14.02 148.02 18.05 144.59 15.56 141.16 18.05 142.47 14.02 139.04 11.53 143.28 11.53 144.59 7.49"/><g><path class="cls-2" d="M23.66,42.34c-1.87-.97-3.33-2.32-4.39-4.04-1.05-1.72-1.58-3.68-1.58-5.86s.53-4.14,1.58-5.86c1.05-1.72,2.51-3.07,4.39-4.04,1.87-.97,3.98-1.46,6.33-1.46s4.35,.49,6.09,1.46c1.74,.97,3,2.36,3.79,4.16l-4.96,2.67c-1.15-2.02-2.8-3.03-4.96-3.03-1.67,0-3.05,.55-4.14,1.64s-1.64,2.58-1.64,4.47,.55,3.38,1.64,4.47c1.09,1.09,2.47,1.64,4.14,1.64,2.19,0,3.84-1.01,4.96-3.03l4.96,2.71c-.79,1.75-2.06,3.12-3.79,4.1-1.74,.98-3.77,1.48-6.09,1.48s-4.46-.48-6.33-1.46Z"/><path class="cls-2" d="M55.37,43.47l-4.84-6.76-5,6.76h-6.97l8.49-11.11-8.2-10.95h7.17l4.67,6.44,4.8-6.44h6.81l-8.2,10.78,8.53,11.27h-7.26Z"/><path class="cls-2" d="M86.16,21.41v18.37c0,4.04-1.05,7.05-3.16,9.02-2.1,1.97-5.18,2.95-9.22,2.95-2.13,0-4.16-.26-6.07-.78-1.91-.52-3.5-1.27-4.76-2.25l2.54-4.59c.93,.76,2.1,1.37,3.53,1.82,1.42,.45,2.84,.68,4.26,.68,2.21,0,3.85-.5,4.9-1.5,1.05-1,1.58-2.51,1.58-4.53v-.94c-1.67,1.83-3.99,2.75-6.97,2.75-2.02,0-3.87-.44-5.56-1.33-1.68-.89-3.01-2.14-4-3.75-.98-1.61-1.48-3.47-1.48-5.58s.49-3.96,1.48-5.58c.98-1.61,2.32-2.86,4-3.75,1.68-.89,3.53-1.33,5.56-1.33,3.2,0,5.63,1.05,7.3,3.16v-2.83h6.07Zm-7.93,14.25c1.08-1,1.62-2.3,1.62-3.92s-.54-2.92-1.62-3.92c-1.08-1-2.47-1.5-4.16-1.5s-3.09,.5-4.18,1.5c-1.09,1-1.64,2.3-1.64,3.92s.55,2.92,1.64,3.92c1.09,1,2.49,1.5,4.18,1.5s3.08-.5,4.16-1.5Z"/><path class="cls-2" d="M111.95,34.24h-16.69c.3,1.37,1.01,2.45,2.13,3.24,1.12,.79,2.51,1.19,4.18,1.19,1.15,0,2.17-.17,3.05-.51,.89-.34,1.71-.88,2.48-1.62l3.4,3.69c-2.08,2.38-5.11,3.57-9.1,3.57-2.49,0-4.69-.48-6.6-1.46-1.91-.97-3.39-2.32-4.43-4.04-1.04-1.72-1.56-3.68-1.56-5.86s.51-4.11,1.54-5.84c1.02-1.74,2.43-3.09,4.22-4.06,1.79-.97,3.79-1.46,6.01-1.46s4.11,.46,5.86,1.39c1.75,.93,3.12,2.26,4.12,4,1,1.74,1.5,3.75,1.5,6.05,0,.08-.04,.66-.12,1.72Zm-14.96-7.09c-.98,.82-1.59,1.94-1.8,3.36h10.87c-.22-1.39-.82-2.51-1.8-3.34-.98-.83-2.19-1.25-3.61-1.25s-2.67,.41-3.65,1.23Z"/><path class="cls-2" d="M134.73,23.54c1.68,1.64,2.52,4.07,2.52,7.3v12.63h-6.4v-11.64c0-1.75-.38-3.05-1.15-3.92-.77-.86-1.87-1.29-3.32-1.29-1.61,0-2.9,.5-3.85,1.5-.96,1-1.44,2.48-1.44,4.45v10.91h-6.4V21.41h6.11v2.58c.85-.93,1.9-1.65,3.16-2.15s2.64-.76,4.14-.76c2.73,0,4.94,.82,6.62,2.46Z"/><path class="cls-2" d="M141.39,21.41h6.4v22.06h-6.4V21.41Z"/><path class="cls-2" d="M173.57,34.24h-16.69c.3,1.37,1.01,2.45,2.13,3.24,1.12,.79,2.51,1.19,4.18,1.19,1.15,0,2.17-.17,3.05-.51,.89-.34,1.71-.88,2.48-1.62l3.4,3.69c-2.08,2.38-5.11,3.57-9.1,3.57-2.49,0-4.69-.48-6.6-1.46-1.91-.97-3.39-2.32-4.43-4.04-1.04-1.72-1.56-3.68-1.56-5.86s.51-4.11,1.54-5.84c1.02-1.74,2.43-3.09,4.22-4.06,1.79-.97,3.79-1.46,6.01-1.46s4.11,.46,5.86,1.39c1.75,.93,3.12,2.26,4.12,4,1,1.74,1.5,3.75,1.5,6.05,0,.08-.04,.66-.12,1.72Zm-14.96-7.09c-.98,.82-1.58,1.94-1.8,3.36h10.87c-.22-1.39-.82-2.51-1.8-3.34-.98-.83-2.19-1.25-3.61-1.25s-2.67,.41-3.65,1.23Z"/><path class="cls-2" d="M178.37,43.12c-1.75-.45-3.14-1.02-4.18-1.7l2.13-4.59c.98,.63,2.17,1.14,3.57,1.54,1.39,.4,2.76,.59,4.1,.59,2.71,0,4.06-.67,4.06-2.01,0-.63-.37-1.08-1.11-1.35-.74-.27-1.87-.5-3.4-.7-1.8-.27-3.29-.59-4.47-.94-1.18-.35-2.19-.98-3.05-1.89-.86-.9-1.29-2.19-1.29-3.85,0-1.39,.4-2.63,1.21-3.71,.81-1.08,1.98-1.92,3.53-2.52,1.54-.6,3.37-.9,5.47-.9,1.56,0,3.11,.17,4.65,.51,1.54,.34,2.82,.81,3.83,1.41l-2.13,4.55c-1.94-1.09-4.06-1.64-6.36-1.64-1.37,0-2.39,.19-3.07,.57-.68,.38-1.03,.88-1.03,1.48,0,.68,.37,1.16,1.11,1.44,.74,.27,1.91,.53,3.53,.78,1.8,.3,3.28,.62,4.43,.96,1.15,.34,2.14,.96,2.99,1.87,.85,.9,1.27,2.16,1.27,3.77,0,1.37-.41,2.58-1.23,3.65-.82,1.07-2.02,1.89-3.59,2.48-1.57,.59-3.44,.88-5.6,.88-1.83,0-3.62-.23-5.37-.68Z"/></g></svg>