<?xml version="1.0" standalone="no"?>
<!DOCTYPE svg PUBLIC "-//W3C//DTD SVG 20010904//EN"
 "http://www.w3.org/TR/2001/REC-SVG-20010904/DTD/svg10.dtd">
<svg version="1.0" xmlns="http://www.w3.org/2000/svg"
 width="260.000000pt" height="260.000000pt" viewBox="0 0 260.000000 260.000000"
 preserveAspectRatio="xMidYMid meet">
<metadata>
Created by potrace 1.14, written by Peter Selinger 2001-2017
</metadata>
<g transform="translate(0.000000,260.000000) scale(0.100000,-0.100000)"
fill="#000000" stroke="none">
<path d="M676 2267 c-20 -20 -62 -133 -82 -217 -2 -8 -20 -71 -41 -139 l-38
-124 -234 -76 c-242 -80 -260 -89 -268 -145 -8 -50 18 -75 218 -213 l199 -138
-1 -242 c-1 -212 1 -246 15 -268 21 -31 60 -48 96 -40 21 5 177 115 280 198 9
6 40 31 71 53 l55 41 224 -73 c124 -41 235 -74 246 -74 27 0 73 36 85 67 10
26 -3 71 -101 345 l-52 146 140 191 c77 105 143 204 147 220 7 35 -15 85 -45
101 -14 7 -100 9 -264 6 l-243 -5 -139 194 c-76 106 -149 198 -162 204 -38 18
-81 13 -106 -12z"/>
<path d="M2007 1917 c-26 -51 -89 -171 -140 -267 -51 -96 -124 -233 -161 -305
-38 -71 -80 -149 -93 -173 l-23 -44 120 5 c97 4 122 2 127 -8 17 -46 -81 -253
-164 -344 -127 -141 -362 -251 -608 -285 -22 -3 -62 -9 -90 -13 -27 -3 -109
-7 -181 -7 -140 -1 -164 -8 -164 -51 0 -39 31 -57 141 -80 114 -24 188 -30
379 -30 201 0 266 9 425 57 234 71 416 202 553 402 68 97 147 269 166 356 4
22 11 26 43 27 21 1 86 3 145 4 l107 4 -22 35 c-68 111 -499 796 -505 802 -4
4 -29 -34 -55 -85z"/>
</g>
</svg>
